<?xml version="1.0" encoding="utf-8"?>
<!-- Generator: Adobe Illustrator 13.0.0, SVG Export Plug-In . SVG Version: 6.00 Build 14948)  -->
<!DOCTYPE svg PUBLIC "-//W3C//DTD SVG 1.0//EN" "http://www.w3.org/TR/2001/REC-SVG-20010904/DTD/svg10.dtd">
<svg version="1.0" id="Calque_1" xmlns="http://www.w3.org/2000/svg" xmlns:xlink="http://www.w3.org/1999/xlink" x="0px" y="0px"
	 width="271.82px" height="396.2px" viewBox="0 0 271.82 396.2" enable-background="new 0 0 271.82 396.2" xml:space="preserve">
<path fill="#0081C6" d="M0,108.142h271.82V0.933C270.781,0.848,261.649,0.138,246.7,0h-10.104C185.118,0.457,86.158,8.218,0,54.981
	V108.142z"/>
<path fill="#004178" d="M0,108.142v130.43c0.179,3.721,0.472,9.3,0.753,12.497c0.021,0.225,0.038,0.446,0.061,0.645
	c0.007,0.094,0.02,0.187,0.029,0.274h270.135c0.01-0.088,0.021-0.181,0.029-0.274c0.022-0.198,0.039-0.42,0.06-0.645
	c0.282-3.197,0.574-8.776,0.754-12.497v-130.43H0z"/>
<linearGradient id="SVGID_1_" gradientUnits="userSpaceOnUse" x1="0.8379" y1="324.0942" x2="270.9824" y2="324.0942">
	<stop  offset="0" style="stop-color:#008734"/>
	<stop  offset="0.1352" style="stop-color:#00962F"/>
	<stop  offset="0.2908" style="stop-color:#4EA628"/>
	<stop  offset="0.418" style="stop-color:#6FB121"/>
	<stop  offset="0.5" style="stop-color:#7AB51D"/>
	<stop  offset="0.5964" style="stop-color:#67AE23"/>
	<stop  offset="0.7775" style="stop-color:#209D2C"/>
	<stop  offset="1" style="stop-color:#008734"/>
</linearGradient>
<path fill="url(#SVGID_1_)" d="M0.838,251.988c6.512,61.049,45.764,120.247,126.031,142.827c0,0,5.434,1.385,9.042,1.385
	s9.042-1.385,9.042-1.385c80.266-22.58,119.518-81.778,126.03-142.827H0.838z"/>
<path fill="#FFFFFF" d="M61.181,183.495c12.042,0,19.635-3.734,23.205-11.417c1.613-3.315,2.506-8.172,2.506-13.66v-31.468
	c-0.006-3.563-0.006-5.957,3.228-6.108l0.609-0.03v-2.583H72.765v2.551l0.574,0.056c3.318,0.337,3.318,2.704,3.317,6.184v29.588
	c0,7.915-1.145,12.669-3.943,16.404c-2.699,3.482-6.474,5.172-11.532,5.172h-0.137c-5.059,0-8.833-1.69-11.529-5.172
	c-2.806-3.734-3.947-8.489-3.947-16.404V127.02c0-3.48,0-5.847,3.316-6.184l0.571-0.056v-2.551H31.5v2.583l0.608,0.03
	c3.23,0.152,3.23,2.545,3.226,6.108v31.468c0,5.488,0.896,10.345,2.506,13.66c3.565,7.683,11.154,11.417,23.205,11.417H61.181"/>
<path fill="#FFFFFF" d="M113.726,126.407c-5.573,6.258-8.397,14.411-8.397,24.229c0,10.443,3.118,19.314,8.784,24.982
	c5.232,5.225,13.67,7.877,25.067,7.877c6.986,0,15.495-1.865,20.223-4.423l0.304-0.167l0.864-12.167h-2.599l-0.136,0.446
	c-2.05,6.592-7.038,10.674-19.193,10.674c-20.326,0-21.904-21.046-21.904-27.495c0-8.523,2.156-28.343,22.084-28.343
	c9.991,0,16.959,2.85,18.24,8.711l0.107,0.497h2.381v-10.596l-0.367-0.167c-4.815-2.248-12.095-3.592-19.457-3.592
	C128.465,116.874,119.231,120.259,113.726,126.407"/>
<path fill="#FFFFFF" d="M203.206,176.833c-7.704,0-8.774-0.918-8.774-7.511v-41.48c0-4.005,0-4.525,9.863-4.525
	c16.793,0.314,24.61,8.621,24.61,26.14C228.905,173.578,215.92,176.833,203.206,176.833 M231.984,126.285
	c-5.757-5.403-13.774-7.958-25.24-8.056h-28.743v2.493l0.583,0.048c2.369,0.21,5.614,1.556,5.614,6.514v45.799
	c-0.135,4.371-2.409,5.8-5.636,6.148l-0.564,0.063v2.844h26.93c10.082,0,17.509-1.878,23.353-5.905
	c5.491-3.786,12.041-11.568,12.041-27.134C240.321,139.449,237.437,131.561,231.984,126.285"/>
<path fill="#FFFFFF" d="M63.128,214.933c-1.882,1.414-4.597,2.13-8.071,2.13c0,0-5.69,0-6.721,0v-18.282c1.003,0,5.766,0,5.766,0
	c4.465,0,7.583,0.773,9.278,2.301c1.668,1.514,2.517,3.816,2.517,6.841C65.897,211.185,64.965,213.548,63.128,214.933
	 M67.135,197.847c-2.741-2.111-6.979-3.185-12.605-3.187H43.196v26.525h11.957c5.139,0,9.15-1.104,11.924-3.275
	c2.825-2.224,4.253-5.485,4.253-9.693C71.331,203.486,69.916,200,67.135,197.847z"/>
<path fill="#FFFFFF" d="M107.803,194.66h-4.52v15.853c0,2.268-0.679,4-2.073,5.305c-1.376,1.286-3.412,1.933-6.058,1.933
	c-2.69,0-4.767-0.641-6.167-1.907s-2.086-3.006-2.086-5.33V194.66H81.76V210.5c0,3.455,1.188,6.25,3.529,8.308
	c2.325,2.032,5.727,3.063,10.107,3.063c3.874,0,7.038-1.008,9.396-2.999c2.407-2.018,3.63-4.836,3.63-8.372V194.66H107.803"/>
<path fill="#FFFFFF" d="M137.378,216.096c-0.989,0.642-2.51,0.967-4.509,0.967c0,0-7.8,0-8.877,0v-7.629c1.075,0,8.638,0,8.638,0
	c2.151,0,3.742,0.346,4.737,1.027c0.931,0.644,1.38,1.578,1.38,2.855C138.746,214.579,138.302,215.488,137.378,216.096
	 M123.992,198.781c1.07,0,8.386,0,8.386,0c2.056,0,3.547,0.279,4.435,0.836c0.811,0.508,1.204,1.321,1.204,2.491
	c0,1.07-0.362,1.848-1.106,2.374c-0.801,0.552-2.029,0.835-3.647,0.835c0,0-8.185,0-9.271,0V198.781z M142.106,208.808
	c-0.793-0.691-1.776-1.164-2.847-1.533c0.873-0.351,1.644-0.784,2.243-1.351c1.096-1.049,1.653-2.464,1.653-4.207
	c0-2.358-0.879-4.152-2.608-5.334c-1.67-1.158-4.348-1.722-8.192-1.723h-13.503v26.525h14.264c3.507,0,6.241-0.676,8.124-2.006
	c1.951-1.391,2.941-3.311,2.941-5.713C144.183,211.555,143.485,209.986,142.106,208.808z"/>
<path fill="#FFFFFF" d="M160.924,194.66h-4.526v26.525h20.762v-4.122c0,0-14.485,0-15.621,0c0-1.165,0-22.403,0-22.403H160.924"/>
<polyline fill="#FFFFFF" points="190.332,194.66 185.805,194.66 185.805,221.185 190.944,221.185 190.944,194.66 190.332,194.66 "/>
<path fill="#FFFFFF" d="M228.013,194.66h-4.524c0,0,0,17.633,0,20.534c-1.811-2.348-15.813-20.534-15.813-20.534h-6.298v26.525
	h5.137c0,0,0-17.636,0-20.537c1.81,2.352,15.814,20.537,15.814,20.537h6.298V194.66H228.013"/>
<polyline points="184.365,65.108 183.735,65.108 178.949,100.85 239.124,100.85 238.925,98.508 181.489,98.508 184.365,65.108 "/>
<path fill="#FFFFFF" d="M204.988,87.973V75.134c0-2.841,2.335-5.147,5.223-5.147c2.885,0,5.223,2.306,5.223,5.147c0,0,0,0,0,0.006
	v12.833H204.988 M225.874,48.412v6.419h-10.44v-6.419c0-0.713-0.587-1.293-1.307-1.293h-7.839c-0.712,0-1.3,0.58-1.3,1.293v6.419
	h-10.442v-6.392c0-0.828-0.334-1.32-1.097-1.32h-8.043c-0.717,0-1.308,0.58-1.308,1.293v6.419h-3.912
	c-0.722,0-1.307,0.579-1.307,1.285v2.564c0,0.713,0.585,1.287,1.307,1.287h1.303v3.854c0,0.71,0.587,1.287,1.31,1.287h1.566
	l-2.876,33.4h57.44l-2.875-33.4h1.568c0.719,0,1.307-0.576,1.307-1.287v-3.854h1.303c0.724,0,1.304-0.574,1.304-1.287v-2.564
	c0-0.707-0.58-1.285-1.304-1.285h-3.913v-6.419c0-0.713-0.589-1.293-1.31-1.293h-7.714
	C226.021,47.119,225.874,47.739,225.874,48.412z"/>
<path fill="#FFFFFF" d="M224.813,40.605c-2.094-0.248-2.661-5.189,0.272-7.375c-0.168,0.376-0.377,2.069,0.207,3.209
	C226.52,38.829,225.907,40.47,224.813,40.605 M212.437,38.344c-6.131-0.652-3.391-13.591,0.848-15.787
	c-0.311,0.677-0.817,4.811,0.514,7.347C216.146,34.384,215.635,37.912,212.437,38.344z M197.943,42.179
	c-2.066,0-3.529-2.531-2.267-5.06c0.734-1.197,2.267-1.93,1.732-5.923c1.797,2.595,2.511,4.201,2.662,4.594
	C201.068,38.316,201.068,41.91,197.943,42.179z M227.911,34.668c-1.683-1.939-0.469-5.256,0.129-5.952
	c-2.585,0.706-5.198,1.749-6.468,3.621c-0.261-2.069-0.593-4.639-3.514-7.906c-4.747-5.302-0.89-9.107,0.31-10.486
	c-10.946,2.98-16.557,13.836-14.431,21.373c-0.418-1.002-1.281-1.849-1.936-3.001c-2.674-4.704-0.648-6.638-0.105-8.154
	c-10.432,5.583-13.872,14.922-8.304,19.848c0,0,1.822,1.965,4.694,1.965c3.721-0.228,7.241-4.969,6.024-9.561
	c1.322,3.297,4.131,6.3,9.153,6.362c2.188-0.14,4.895-2.247,6.368-4.541c-0.284,2.593,1.869,7.553,6.781,5.746
	C229.331,42.602,230.972,38.196,227.911,34.668z"/>
<polyline points="102.83,69.217 102.275,69.217 98.04,100.85 151.297,100.85 151.12,98.778 100.289,98.778 102.83,69.217 "/>
<path fill="#FFFFFF" d="M121.083,89.455V78.087c0-2.512,2.068-4.552,4.623-4.552c2.553,0,4.623,2.04,4.623,4.552c0,0,0,0,0,0.007
	v11.36H121.083 M139.568,54.44v5.681h-9.24V54.44c0-0.63-0.521-1.142-1.154-1.142h-6.941c-0.63,0-1.15,0.512-1.15,1.142v5.681
	h-9.243v-5.655c0-0.732-0.296-1.167-0.969-1.167h-7.115c-0.637,0-1.157,0.512-1.157,1.142v5.681h-3.463
	c-0.643,0-1.16,0.512-1.16,1.14v2.269c0,0.632,0.517,1.139,1.16,1.139h1.154v3.412c0,0.627,0.517,1.137,1.156,1.137h1.385
	l-2.541,29.561h50.835l-2.548-29.561h1.393c0.634,0,1.155-0.51,1.155-1.137v-3.412h1.157c0.637,0,1.15-0.507,1.15-1.139v-2.269
	c0-0.628-0.514-1.14-1.15-1.14h-3.466V54.44c0-0.63-0.523-1.142-1.162-1.142h-6.829C139.699,53.298,139.568,53.844,139.568,54.44z"
	/>
<path fill="#FFFFFF" d="M139.163,46.961c-1.928-0.225-2.445-4.764,0.248-6.77c-0.155,0.344-0.345,1.897,0.189,2.944
	C140.732,45.331,140.166,46.837,139.163,46.961 M127.843,45.73c-5.228-0.45-4.022-10.311,0.113-14.374
	c-0.274,0.598,0.066,4.516,1.278,6.469C131.189,40.985,131.173,45.611,127.843,45.73z M115.189,47.852
	c-1.671,0-2.86-2.051-1.833-4.1c0.594-0.972,1.833-1.564,1.399-4.801c1.461,2.103,2.038,3.404,2.159,3.721
	C117.721,44.722,117.721,47.633,115.189,47.852z M141.975,41.458c-1.584-2.524-0.778-5.034-0.253-5.649
	c-2.285,0.623-4.86,2.991-5.979,4.652c-0.333-1.828,0-3.324-3.093-7.244c-3.898-4.945-0.786-8.057,0.276-9.279
	c-9.687,2.638-11.556,8.799-12.967,16.024c-0.375-0.888-0.821-1.781-1.662-3.155c-0.914-1.498-0.832-3.491,0-5.153
	c-9.234,4.942-11.714,13.458-7.311,18.528c0,0,1.245,1.828,4.402,1.742c3.293-0.201,6.312-3.578,5.232-7.643
	c1.173,2.921,3.52,5.12,7.967,5.172c1.933-0.12,4.331-1.987,5.633-4.015c-0.252,2.293,1.982,6.121,5.594,5.24
	C142.806,49.848,145.046,46.358,141.975,41.458z"/>
<polyline points="33.985,76.753 33.558,76.753 30.334,100.85 70.904,100.85 70.766,99.27 32.044,99.27 33.985,76.753 "/>
<path fill="#FFFFFF" d="M47.886,92.168V83.51c0-1.913,1.575-3.468,3.525-3.468c1.939,0,3.518,1.556,3.518,3.468c0,0,0,0,0,0.006
	v8.652H47.886 M61.968,65.496v4.328h-7.039v-4.328c0-0.479-0.394-0.87-0.879-0.87h-5.285c-0.482,0-0.879,0.391-0.879,0.87v4.328
	h-7.039v-4.307c0-0.56-0.225-0.891-0.739-0.891h-5.421c-0.483,0-0.881,0.391-0.881,0.87v4.328h-2.642
	c-0.483,0-0.88,0.391-0.88,0.868v1.729c0,0.481,0.397,0.867,0.88,0.867h0.88v2.598c0,0.478,0.395,0.868,0.884,0.868h1.057
	l-1.94,22.517h38.728l-1.939-22.517h1.059c0.482,0,0.88-0.39,0.88-0.868v-2.598h0.88c0.487,0,0.878-0.386,0.878-0.867v-1.729
	c0-0.477-0.391-0.868-0.878-0.868H69.01v-4.328c0-0.479-0.396-0.87-0.883-0.87h-5.201C62.072,64.625,61.968,65.042,61.968,65.496z"
	/>
<path fill="#FFFFFF" d="M61.609,59.775c-1.521-0.178-1.93-3.763,0.198-5.35c-0.125,0.272-0.275,1.5,0.151,2.328
	C62.846,58.485,62.403,59.676,61.609,59.775 M52.983,57.486c-3.666-0.392-2.027-8.127,0.507-9.438
	c-0.182,0.405-0.489,2.875,0.31,4.391C55.202,55.121,54.895,57.229,52.983,57.486z M43.041,60.415c-1.283,0-2.198-1.58-1.407-3.156
	c0.451-0.744,1.407-1.204,1.073-3.691c1.125,1.617,1.571,2.618,1.664,2.861C44.992,58.008,44.992,60.247,43.041,60.415z
	 M63.74,55.453c-1.301-1.806-0.301-4.042,0.099-4.512c-2.511,0.557-4.085,2.561-4.939,3.825c0.123-2.02-1.079-3.825-2.198-5.437
	c-2.746-3.937-0.601-6.139,0.207-7.07c-7.379,2.009-10.218,7.478-9.922,13.094c-0.279-0.679-0.686-0.969-1-1.808
	c-1.203-3.208,0.034-4.693,0.399-5.716c-8.823,4.013-10.273,11.022-6.518,14.343c0,0,1.403,1.604,3.813,1.306
	c2.509-0.156,4.571-2.972,3.75-6.07c0.892,2.224,2.784,4.248,6.173,4.289c1.472-0.093,3.316-0.426,4.292-3.059
	c-0.191,1.747,3.135,5.842,5.943,2.731C65.244,59.667,65.16,57.42,63.74,55.453z"/>
<path d="M142.024,379.575c-44.77-25.972-67.607-62.779-62.415-117.169c-0.12-0.091-0.986-0.775-1.979-1.531
	c-7.339,55.541,18.877,94.686,63.649,120.655L142.024,379.575"/>
<linearGradient id="SVGID_2_" gradientUnits="userSpaceOnUse" x1="3701.7344" y1="4546.3159" x2="3703.2188" y2="4546.3159" gradientTransform="matrix(25.8175 -25.8175 -67.1378 -67.1378 209753.3438 401137.7188)">
	<stop  offset="0" style="stop-color:#E7AC00"/>
	<stop  offset="0.0843" style="stop-color:#E7AC00"/>
	<stop  offset="0.0981" style="stop-color:#E8AE00"/>
	<stop  offset="0.2759" style="stop-color:#F1C300"/>
	<stop  offset="0.4343" style="stop-color:#F7D000"/>
	<stop  offset="0.5562" style="stop-color:#F8D400"/>
	<stop  offset="0.9045" style="stop-color:#C1A13D"/>
	<stop  offset="1" style="stop-color:#C1A13D"/>
</linearGradient>
<path fill="url(#SVGID_2_)" d="M142.024,379.575l3.175-8.216c-36.116-25.912-44.702-59.064-43.268-100.687
	c-7.749-0.354-15.1-2.796-22.322-8.267C74.417,316.795,97.254,353.603,142.024,379.575z"/>
<path d="M192.798,260.01c-20.949-10.787-36.943-10.273-56.167-4.173c-22.986,7.29-42.473,9.42-59.61-6.133
	c0.003-0.006,0.004-0.011,0.007-0.02c-0.327,0.744-0.643,1.517-0.927,2.33c17.134,15.546,35.785,12.558,59.044,6.181
	c23.165-6.352,36.106-7.593,57.135,3.272L192.798,260.01"/>
<linearGradient id="SVGID_3_" gradientUnits="userSpaceOnUse" x1="3659.3828" y1="4635.3345" x2="3660.8662" y2="4635.3345" gradientTransform="matrix(80.0495 0 0 -24.9677 -292854.8438 115981.2734)">
	<stop  offset="0" style="stop-color:#E7AC00"/>
	<stop  offset="0.1405" style="stop-color:#E7AC00"/>
	<stop  offset="0.1555" style="stop-color:#E8AE00"/>
	<stop  offset="0.3481" style="stop-color:#F1C300"/>
	<stop  offset="0.5196" style="stop-color:#F7D000"/>
	<stop  offset="0.6517" style="stop-color:#F8D400"/>
	<stop  offset="1" style="stop-color:#C1A13D"/>
</linearGradient>
<path fill="url(#SVGID_3_)" d="M138.796,239.607c-17.393,5.717-36.255,4.521-46.639-5.797c-6.29,2.822-12.543,8.408-15.136,15.895
	c17.137,15.553,36.624,13.423,59.61,6.133c19.224-6.101,35.218-6.614,56.167,4.173l2.921-8.007
	C182.138,237.487,155.088,234.252,138.796,239.607z"/>
<path d="M191.537,264.256L155.7,367.833c-5.287-2.474-10.886-6.366-14.609-9.008l-1.077,2.297
	c4.242,3.225,13.294,8.724,16.797,9.878l35.881-106.208C192.351,264.625,191.954,264.446,191.537,264.256"/>
<linearGradient id="SVGID_4_" gradientUnits="userSpaceOnUse" x1="3591.9795" y1="4537.5503" x2="3593.4619" y2="4537.5503" gradientTransform="matrix(34.0236 0 0 -75.2935 -122071.0625 341962.875)">
	<stop  offset="0" style="stop-color:#E7AC00"/>
	<stop  offset="0.1405" style="stop-color:#E7AC00"/>
	<stop  offset="0.1555" style="stop-color:#E8AE00"/>
	<stop  offset="0.3481" style="stop-color:#F1C300"/>
	<stop  offset="0.5196" style="stop-color:#F7D000"/>
	<stop  offset="0.6517" style="stop-color:#F8D400"/>
	<stop  offset="1" style="stop-color:#C1A13D"/>
</linearGradient>
<path fill="url(#SVGID_4_)" d="M141.091,358.826c3.724,2.642,9.322,6.534,14.609,9.008l35.84-103.585
	c-2.075-0.982-4.133-1.801-6.166-2.479L141.091,358.826z"/>
<path d="M107.274,270.608c-0.649,0.043-1.328,0.09-2.059,0.144l30.012,51.21l1.167-1.777L107.274,270.608"/>
<path fill="#FFFFFF" d="M140.732,313.622l-25.879-44.042c-2.579,0.503-5.1,0.854-7.582,1.026l0.003,0.002l29.121,49.576
	L140.732,313.622"/>
<path d="M124.284,267.171c-0.261,0.073-1.196,0.355-1.777,0.545l22.781,38.996l1.166-1.772L124.284,267.171"/>
<path fill="#FFFFFF" d="M150.777,298.384l-19.664-33.469c-2.351,0.871-4.527,1.55-6.631,2.193c-0.065,0.018-0.132,0.04-0.198,0.063
	l22.169,37.769L150.777,298.384"/>
<path d="M145.017,259.864c-0.025,0.003-0.063,0.021-0.088,0.027C144.958,259.881,144.985,259.871,145.017,259.864"/>
<path d="M139.994,261.619c-0.48,0.169-1.034,0.371-1.654,0.604l17.007,29.232l1.152-1.747L139.994,261.619"/>
<path fill="#FFFFFF" d="M160.828,283.15l-14.032-23.878c-0.604,0.19-1.189,0.392-1.779,0.592c-0.031,0.007-0.059,0.018-0.088,0.027
	c-1.345,0.448-2.695,0.921-4.065,1.418c-0.291,0.104-0.575,0.2-0.869,0.31l16.505,28.09L160.828,283.15"/>
<path d="M156.152,256.796c-0.736,0.146-1.433,0.295-2.037,0.438l11.237,19.057l1.192-1.813L156.152,256.796"/>
<path fill="#FFFFFF" d="M170.874,267.917l-7.207-12.273c-0.73,0.073-1.439,0.178-2.157,0.269c-0.396,0.054-0.805,0.092-1.201,0.151
	c-0.33,0.05-0.654,0.098-0.979,0.151c-0.978,0.158-1.946,0.332-2.902,0.523c-0.096,0.018-0.186,0.034-0.276,0.052l0.002,0.006
	l10.393,17.681L170.874,267.917"/>
<path d="M182.728,260.964l-47.981,91.964c-1.275-1.17-7.189-7.063-10.804-13.831l-1.249,1.855
	c2.996,5.906,9.572,13.182,12.512,15.697l48.652-95.307C183.599,261.229,183.196,261.101,182.728,260.964"/>
<linearGradient id="SVGID_5_" gradientUnits="userSpaceOnUse" x1="3608.5371" y1="4543.7798" x2="3610.0205" y2="4543.7798" gradientTransform="matrix(39.6499 0 0 -66.704 -142954.1875 303394.5313)">
	<stop  offset="0" style="stop-color:#E7AC00"/>
	<stop  offset="0.1405" style="stop-color:#E7AC00"/>
	<stop  offset="0.1555" style="stop-color:#E8AE00"/>
	<stop  offset="0.3481" style="stop-color:#F1C300"/>
	<stop  offset="0.5196" style="stop-color:#F7D000"/>
	<stop  offset="0.6517" style="stop-color:#F8D400"/>
	<stop  offset="1" style="stop-color:#C1A13D"/>
</linearGradient>
<path fill="url(#SVGID_5_)" d="M123.939,339.081c3.612,6.773,9.532,12.678,10.808,13.848l47.986-91.972
	c-2.153-0.602-4.28-1.048-6.372-1.361L123.939,339.081z"/>
</svg>
